<?xml version="1.0" encoding="UTF-8"?>
<svg width="16px" height="16px" viewBox="0 0 16 16" version="1.1" xmlns="http://www.w3.org/2000/svg" xmlns:xlink="http://www.w3.org/1999/xlink">
    <title>采集中台</title>
    <g id="物联网平台3.0" stroke="none" stroke-width="1" fill="none" fill-rule="evenodd">
        <g id="业务平台-主机构" transform="translate(-1581.000000, -21.000000)" fill="#FFFFFF" fill-rule="nonzero">
            <g id="数据" transform="translate(1581.000000, 21.000000)">
                <path d="M8,12.2133333 L3.90012871,9.94567903 L3.90012871,5.40839507 L8,3.13876545 L12.0998713,5.40641976 L12.0998713,9.94370371 L8,12.2133333 Z M4.82676962,9.43209878 L8,11.1881482 L11.1732304,9.43209878 L11.1732304,5.92197532 L8,4.16592593 L4.82676962,5.92197532 L4.82676962,9.43209878 L4.82676962,9.43209878 Z M7.53667954,7.67604938 L8.46332046,7.67604938 L8.46332046,11.6997531 L7.53667954,11.6997531 L7.53667954,7.67604938 Z M7.76957529,7.29179259 L11.4069498,5.27956545 L11.869879,6.04961976 L8.23254569,8.06182717 L7.76957529,7.29179259 Z M4.13283913,6.04958026 L4.59578894,5.27952593 L8.23314285,7.29173334 L7.77019306,8.06178765 L4.13283913,6.04958026 Z M9.1943372,14.7871605 L8.73101672,14.0167901 L14.0849421,11.0558025 L14.0849421,5.01333334 L15.011583,5.01333334 L15.011583,11.3125926 C15.011583,11.4706173 14.9230373,11.6187654 14.7788932,11.6977778 L9.1943372,14.7871605 Z M6.80154441,14.7851852 L1.22110684,11.6977778 C1.07696269,11.6187654 0.988417007,11.4706173 0.988417007,11.3125926 L0.988417007,5.01333334 L1.91505792,5.01333334 L1.91505792,11.0538272 L7.26486486,14.0128395 L6.80154441,14.7851852 Z M2.53899614,3.97827162 L2.07567569,3.20790124 L7.76936938,0.0592592656 C7.91351352,-0.0197530885 8.08854569,-0.0197530885 8.23268983,0.0592592656 L13.9243243,3.20790124 L13.4610039,3.97827162 L8,0.958024702 L2.53899614,3.97827162 Z M14.5482625,5.45975309 C13.7472329,5.45975309 13.0965251,4.83555557 13.0965251,4.06716051 C13.0965251,3.29876545 13.7472329,2.67456791 14.5482625,2.67456791 C15.3492921,2.67456791 16,3.29876543 16,4.06716051 C16,4.83555559 15.3492922,5.45975309 14.5482625,5.45975309 Z M14.5482625,3.56543212 C14.257915,3.56543212 14.023166,3.7906173 14.023166,4.06716051 C14.023166,4.34370372 14.257915,4.56888891 14.5482625,4.56888891 C14.83861,4.56888891 15.0733591,4.34370372 15.0733591,4.06716051 C15.0733591,3.7906173 14.83861,3.56543212 14.5482625,3.56543212 Z M1.45173746,5.45975309 C0.650707861,5.45975309 0,4.83555557 0,4.06716051 C0,3.29876545 0.650707839,2.67456791 1.45173746,2.67456791 C2.25276708,2.67456791 2.9034749,3.29876543 2.9034749,4.06716051 C2.9034749,4.83555559 2.25276706,5.45975309 1.45173746,5.45975309 L1.45173746,5.45975309 Z M1.45173746,3.56543212 C1.16138997,3.56543212 0.926640933,3.7906173 0.926640933,4.06716051 C0.926640933,4.34370372 1.16138997,4.56888891 1.45173746,4.56888891 C1.74208495,4.56888891 1.97683399,4.34370372 1.97683399,4.06716051 C1.97683399,3.7906173 1.74208495,3.56543212 1.45173746,3.56543212 Z M7.99794079,16 C7.19691119,16 6.54620335,15.3758025 6.54620335,14.6074074 C6.54620335,13.8390124 7.19691119,13.2148148 7.99794079,13.2148148 C8.79897039,13.2148148 9.44967826,13.8390123 9.44967826,14.6074074 C9.44967826,15.3758025 8.79897042,16 7.99794079,16 L7.99794079,16 Z M7.99794079,14.105679 C7.7075933,14.105679 7.47284426,14.3308642 7.47284426,14.6074074 C7.47284426,14.8839506 7.7075933,15.1091358 7.99794079,15.1091358 C8.28828829,15.1091358 8.52303732,14.8839506 8.52303732,14.6074074 C8.52303732,14.3308642 8.28828829,14.105679 7.99794079,14.105679 L7.99794079,14.105679 Z" id="形状"></path>
            </g>
        </g>
    </g>
</svg>