<?xml version="1.0" encoding="UTF-8"?>
<svg width="32px" height="32px" viewBox="0 0 32 32" version="1.1" xmlns="http://www.w3.org/2000/svg" xmlns:xlink="http://www.w3.org/1999/xlink">
    <title>消息中心</title>
    <g id="物联网平台3.0" stroke="none" stroke-width="1" fill="none" fill-rule="evenodd">
        <g id="业务平台-主机构" transform="translate(-1740.000000, -16.000000)">
            <g id="编组-15" transform="translate(1740.000000, 10.000000)">
                <g id="消息中心" transform="translate(0.000000, 6.000000)">
                    <circle id="椭圆形" fill="#0067C7" cx="16" cy="16" r="16"></circle>
                    <path d="M9.334,18.4875556 L9.334,13.7651111 C9.334,10.0902222 12.3184444,7.1111111 16,7.1111111 C19.6815556,7.1111111 22.666,10.0902222 22.666,13.7651111 L22.666,18.4875556 L23.9286667,21.0086667 C24.1504444,21.4511111 23.828,21.9715556 23.3324444,21.9715556 L8.66755556,21.9715556 C8.172,21.9715556 7.84977779,21.4511111 8.07133333,21.0086667 L9.334,18.4875556 Z M22.254,20.6408889 L21.4031111,18.9422222 C21.3568158,18.8498625 21.3326957,18.7479796 21.3326667,18.6446667 L21.3326667,13.7651111 C21.3326667,10.8251111 18.9451111,8.442 16,8.442 C13.0548889,8.442 10.6673333,10.8251111 10.6673333,13.7651111 L10.6673333,18.6444444 C10.6673333,18.7477778 10.6431111,18.8495555 10.5968889,18.9422222 L9.746,20.6406667 L22.254,20.6406667 L22.254,20.6408889 Z M13.0184444,23.8142222 C12.8824784,23.7015703 12.796943,23.5394325 12.7807239,23.3636083 C12.7645049,23.1877841 12.8189364,23.0127349 12.932,22.8771111 C13.1676185,22.594519 13.5875098,22.5559495 13.8706667,22.7908889 C14.4687176,23.2880211 15.2223095,23.5594306 16,23.5577778 C16.7775103,23.5593888 17.5309246,23.2880653 18.1288889,22.7911111 C18.4120458,22.5561717 18.8319371,22.5947413 19.0675556,22.8773333 C19.1805935,23.0129851 19.2349873,23.1880518 19.2187265,23.3638772 C19.2024657,23.5397026 19.1168877,23.7018243 18.9808889,23.8144444 C18.1435092,24.5102135 17.0887135,24.8904086 16,24.8888934 C14.8962222,24.8888934 13.85,24.5044445 13.0184444,23.814 L13.0184444,23.8142222 Z" id="形状" fill="#FFFFFF" fill-rule="nonzero"></path>
                </g>
            </g>
        </g>
    </g>
</svg>