<?xml version="1.0" encoding="UTF-8"?>
<svg width="16px" height="16px" viewBox="0 0 16 16" version="1.1" xmlns="http://www.w3.org/2000/svg" xmlns:xlink="http://www.w3.org/1999/xlink">
    <title>基础设置</title>
    <g id="物联网3.0" stroke="none" stroke-width="1" fill="none" fill-rule="evenodd">
        <g id="业务平台-主机构-无数据" transform="translate(-38.000000, -315.000000)" fill="#ADB1B8">
            <g id="基础设置" transform="translate(38.000000, 315.000000)">
                <path d="M5.01485714,2.46742857 C5.39162715,2.26345 5.78838237,2.09877361 6.19885714,1.976 L6.85714286,0 L9.14285714,0 L9.80114286,1.97714286 C10.216,2.09942857 10.6125714,2.26514286 10.9851429,2.46742857 L12.848,1.53485714 L14.4651429,3.15085714 L13.5325714,5.01485714 C13.7348571,5.38857143 13.9005714,5.784 14.024,6.19885714 L16,6.85714286 L16,9.14285714 L14.0228571,9.80114286 C13.9004492,10.2115734 13.7361564,10.6083272 13.5325714,10.9851429 L14.4651429,12.848 L12.8491429,14.4651429 L10.9851429,13.5325714 C10.6083728,13.73655 10.2116176,13.9012264 9.80114286,14.024 L9.14285714,16 L6.85714286,16 L6.19885714,14.0228571 C5.78842661,13.9004492 5.39167283,13.7361564 5.01485714,13.5325714 L3.152,14.4651429 L1.53485714,12.8491429 L2.46742857,10.9851429 C2.26345,10.6083728 2.09877361,10.2116176 1.976,9.80114286 L0,9.14285714 L0,6.85714286 L1.97714286,6.19885714 C2.09942857,5.784 2.26514286,5.38742857 2.46742857,5.01485714 L1.53485714,3.152 L3.15085714,1.53485714 L5.01485714,2.46742857 Z M8,11 C9.65685425,11 11,9.65685425 11,8 C11,6.34314575 9.65685425,5 8,5 C6.34314575,5 5,6.34314575 5,8 C5,9.65685425 6.34314575,11 8,11 Z" id="形状"></path>
            </g>
        </g>
    </g>
</svg>