<?xml version="1.0" encoding="UTF-8"?>
<svg width="16px" height="16px" viewBox="0 0 16 16" version="1.1" xmlns="http://www.w3.org/2000/svg" xmlns:xlink="http://www.w3.org/1999/xlink">
    <title>空心对勾</title>
    <g id="日报信息管理系统" stroke="none" stroke-width="1" fill="none" fill-rule="evenodd">
        <g id="我的看板" transform="translate(-1808.000000, -706.000000)" fill="#2785FF" fill-rule="nonzero">
            <g id="空心对勾" transform="translate(1808.000000, 706.000000)">
                <rect id="矩形" opacity="0" x="0" y="0" width="16" height="16"></rect>
                <path d="M8,15.5 C3.858,15.5 0.5,12.142 0.5,8 C0.5,3.858 3.858,0.5 8,0.5 C12.142,0.5 15.5,3.858 15.5,8 C15.5,12.142 12.142,15.5 8,15.5 Z M8,14.5 C11.59,14.5 14.5,11.59 14.5,8 C14.5,4.41 11.59,1.5 8,1.5 C4.41,1.5 1.5,4.41 1.5,8 C1.5,11.59 4.41,14.5 8,14.5 Z M11.5815,5.375 C11.771119,5.18007639 12.0817564,5.17243864 12.2807258,5.3578079 C12.4796951,5.54317716 12.4940333,5.85357754 12.313,6.0565 L7.3865,11.341 C7.20510839,11.5354694 6.90323012,11.5539249 6.6995,11.383 L3.6785,8.846 C3.53683167,8.73261394 3.46771291,8.55137461 3.49790254,8.37244753 C3.52809218,8.19352045 3.6528511,8.04499331 3.82387977,7.98436733 C3.99490844,7.92374136 4.18535905,7.96053352 4.3215,8.0805 L6.979,10.312 L11.5815,5.3745 L11.5815,5.375 Z" id="形状"></path>
            </g>
        </g>
    </g>
</svg>