<?xml version="1.0" encoding="UTF-8"?>
<svg width="16px" height="16px" viewBox="0 0 16 16" version="1.1" xmlns="http://www.w3.org/2000/svg" xmlns:xlink="http://www.w3.org/1999/xlink">
    <title>关闭icon</title>
    <g id="日报信息管理系统" stroke="none" stroke-width="1" fill="none" fill-rule="evenodd">
        <g id="我的看板" transform="translate(-1462.000000, -34.000000)" fill-rule="nonzero">
            <g id="编组-19" transform="translate(182.000000, 20.000000)">
                <g id="关闭icon-2" transform="translate(1280.000000, 14.000000)">
                    <g id="关闭icon" transform="translate(8.000000, 8.000000) rotate(-270.000000) translate(-8.000000, -8.000000) translate(0.000000, 0.000000)">
                        <rect id="矩形" fill="#000000" opacity="0" x="0" y="0" width="16" height="16"></rect>
                        <path d="M2.69669914,13.3033009 C-0.232137147,10.3744646 -0.232137147,5.62553543 2.69669914,2.69669914 C5.62553543,-0.232137147 10.3744646,-0.232137147 13.3033009,2.69669914 C16.2321371,5.62553543 16.2321371,10.3744646 13.3033009,13.3033009 C10.3744646,16.2321371 5.62553543,16.2321371 2.69669914,13.3033009 Z M3.40380592,12.5961941 C5.94231927,15.1347074 10.0576807,15.1347074 12.5961941,12.5961941 C15.1347074,10.0576807 15.1347074,5.94231927 12.5961941,3.40380592 C10.0576807,0.865292578 5.94231927,0.865292578 3.40380592,3.40380592 C0.865292578,5.94231927 0.865292578,10.0576807 3.40380592,12.5961941 Z" id="形状" fill="#2785FF"></path>
                        <path d="M8,3.5 C8.27614237,3.5 8.5,3.72385763 8.5,4 L8.5,7.5 L12,7.5 C12.2761424,7.5 12.5,7.72385763 12.5,8 C12.5,8.27614237 12.2761424,8.5 12,8.5 L8.5,8.5 L8.5,12 C8.5,12.2761424 8.27614237,12.5 8,12.5 C7.72385763,12.5 7.5,12.2761424 7.5,12 L7.5,8.5 L4,8.5 C3.72385763,8.5 3.5,8.27614237 3.5,8 C3.5,7.72385763 3.72385763,7.5 4,7.5 L7.5,7.5 L7.5,4 C7.5,3.72385763 7.72385763,3.5 8,3.5 Z" id="形状结合" fill="#2785FF" transform="translate(8.000000, 8.000000) rotate(-315.000000) translate(-8.000000, -8.000000) "></path>
                    </g>
                </g>
            </g>
        </g>
    </g>
</svg>