<?xml version="1.0" standalone="no"?><!DOCTYPE svg PUBLIC "-//W3C//DTD SVG 1.1//EN" "http://www.w3.org/Graphics/SVG/1.1/DTD/svg11.dtd"><svg t="1647847998312" class="icon" viewBox="0 0 1024 1024" version="1.1" xmlns="http://www.w3.org/2000/svg" p-id="2008" xmlns:xlink="http://www.w3.org/1999/xlink" width="200" height="200"><defs><style type="text/css">@font-face { font-family: feedback-iconfont; src: url("//at.alicdn.com/t/font_1031158_u69w8yhxdu.woff2?t=1630033759944") format("woff2"), url("//at.alicdn.com/t/font_1031158_u69w8yhxdu.woff?t=1630033759944") format("woff"), url("//at.alicdn.com/t/font_1031158_u69w8yhxdu.ttf?t=1630033759944") format("truetype"); }
</style></defs><path d="M245.312 152.192H376.96v64H245.312c-44.352 0-80.768 33.92-84.928 77.12l-0.384 8.256v508.16c0 44.352 33.856 80.832 77.12 84.928l8.192 0.448h528c44.352 0 80.832-33.92 84.992-77.12l0.384-8.256v-508.16c0-44.352-33.92-80.832-77.12-84.992l-8.256-0.384h-133.184v-64h133.184c79.04 0 143.744 61.44 148.992 139.136l0.384 10.24v508.16c0 79.04-61.44 143.744-139.136 148.992l-10.24 0.384h-528a149.312 149.312 0 0 1-148.992-139.136l-0.32-10.24v-508.16c0-79.04 61.44-143.744 139.136-148.992l10.24-0.384z" fill="#2785FF" p-id="2009"></path><path d="M483.2 128h64v448h-64z" fill="#2785FF" p-id="2010"></path></svg>