<?xml version="1.0" encoding="UTF-8"?>
<svg width="18px" height="18px" viewBox="0 0 18 18" version="1.1" xmlns="http://www.w3.org/2000/svg" xmlns:xlink="http://www.w3.org/1999/xlink">
    <title>删除</title>
    <g id="日报信息管理系统" stroke="none" stroke-width="1" fill="none" fill-rule="evenodd">
        <g id="任务管理-新增" transform="translate(-1862.000000, -122.000000)" fill="#959595" fill-rule="nonzero">
            <g id="删除" transform="translate(1862.000000, 122.000000)">
                <rect id="矩形" opacity="0" x="1" y="1" width="15.979355" height="15.979355"></rect>
                <path d="M8.19070977,9.06231095 C5.90275666,6.73804113 3.68743699,4.55903817 1.50843402,2.38003521 C0.96368328,1.83528447 0.854733135,1.50843402 1.21790029,1.18158359 C1.54475074,0.891049855 1.83528446,0.963683295 2.38003521,1.50843402 C4.45008802,3.57848683 6.48382412,5.64853965 8.55387693,7.68227575 C8.69914379,7.82754262 8.80809394,8.0091262 9.02599424,8.29965992 C9.31652797,7.90017604 9.53442827,7.64595903 9.75232856,7.39174202 C11.7134312,5.43063936 13.6745339,3.43321998 15.6719533,1.4721173 C15.8172201,1.32685044 15.9261703,1.14526685 16.0714371,1.10895015 C16.3256542,1.03631672 16.6888213,1 16.7977715,1.14526687 C16.9430383,1.32685045 16.9067216,1.65370089 16.8704049,1.9079179 C16.8704049,2.05318476 16.6525046,2.16213491 16.5435545,2.27108505 C14.2919181,4.52272146 12.1129151,6.73804113 9.8612787,8.98967752 C10.1881292,9.35284468 10.5149796,9.67969513 10.84183,10.0065456 C12.7302993,11.8950148 14.6187685,13.783484 16.5435545,15.6719533 L16.6888213,15.8172201 C16.979355,16.1077539 17.1609386,16.4346043 16.7977715,16.7614548 C16.4346043,17.1246219 16.1077539,16.9430383 15.7809034,16.6525046 L9.53442827,10.4060294 C9.35284468,10.2244459 9.24389453,10.0428623 9.06231095,9.824962 C8.80809394,10.079179 8.62651035,10.2244459 8.4812435,10.3697127 C6.4111907,12.4397655 4.34113787,14.5098184 2.23476835,16.5798712 C2.1258182,16.6888213 2.01686806,16.8340882 1.9079179,16.8704049 C1.65370089,16.9067216 1.32685044,16.9067216 1.18158359,16.7977715 C1.03631672,16.6525046 1.07263344,16.2893374 1.10895015,16.0714371 C1.14526687,15.9261703 1.32685044,15.7809034 1.4721173,15.6719533 L7.64595903,9.49811154 C7.82754262,9.31652796 8.00912619,9.20757781 8.19070977,9.06231095 Z" id="路径" stroke="#959595" stroke-width="0.5"></path>
            </g>
        </g>
    </g>
</svg>