<?xml version="1.0" standalone="no"?><!DOCTYPE svg PUBLIC "-//W3C//DTD SVG 1.1//EN" "http://www.w3.org/Graphics/SVG/1.1/DTD/svg11.dtd"><svg t="1647848006216" class="icon" viewBox="0 0 1024 1024" version="1.1" xmlns="http://www.w3.org/2000/svg" p-id="2279" xmlns:xlink="http://www.w3.org/1999/xlink" width="200" height="200"><defs><style type="text/css">@font-face { font-family: feedback-iconfont; src: url("//at.alicdn.com/t/font_1031158_u69w8yhxdu.woff2?t=1630033759944") format("woff2"), url("//at.alicdn.com/t/font_1031158_u69w8yhxdu.woff?t=1630033759944") format("woff"), url("//at.alicdn.com/t/font_1031158_u69w8yhxdu.ttf?t=1630033759944") format("truetype"); }
</style></defs><path d="M866.56 168h-178.368v-74.24A29.696 29.696 0 0 0 658.432 64H301.888a29.696 29.696 0 0 0-29.76 29.696v74.304H93.696a29.696 29.696 0 1 0 0 59.456h31.36l72.32 648.768a89.152 89.152 0 0 0 88.64 79.232h388.288c45.44 0 83.52-34.112 88.576-79.232l72.32-648.768h31.36a29.696 29.696 0 0 0 0-59.456z m-534.976-44.544h297.152v44.544H331.584v-44.544z m372.288 746.176a29.696 29.696 0 0 1-29.568 26.368H286.08a29.696 29.696 0 0 1-29.568-26.368L184.832 227.456h590.656l-71.68 642.176z m-134.592-73.024a29.696 29.696 0 0 0 29.76-29.696V330.624a29.696 29.696 0 0 0-59.456 0v436.288c0 16.384 13.312 29.696 29.696 29.696z m-163.392 0a29.696 29.696 0 0 0 29.696-29.696V330.624a29.696 29.696 0 0 0-59.456 0v436.288c0 16.384 13.312 29.696 29.76 29.696z" fill="#2785FF" p-id="2280"></path></svg>