<?xml version="1.0" encoding="UTF-8"?>
<svg width="12px" height="12px" viewBox="0 0 12 12" version="1.1" xmlns="http://www.w3.org/2000/svg" xmlns:xlink="http://www.w3.org/1999/xlink">
    <title>添加子部门</title>
    <g id="日报信息管理系统" stroke="none" stroke-width="1" fill="none" fill-rule="evenodd">
        <g id="用户管理" transform="translate(-329.000000, -188.000000)" fill="#ADAFB8" fill-rule="nonzero">
            <g id="添加子部门" transform="translate(329.000000, 188.000000)">
                <path d="M6,0 C9.3137085,0 12,2.6862915 12,6 C12,9.3137085 9.3137085,12 6,12 C2.6862915,12 0,9.3137085 0,6 C0,2.6862915 2.6862915,0 6,0 Z M6,1 C3.23857625,1 1,3.23857625 1,6 C1,8.76142375 3.23857625,11 6,11 C8.76142375,11 11,8.76142375 11,6 C11,3.23857625 8.76142375,1 6,1 Z" id="椭圆形"></path>
                <polygon id="路径-9" points="7.74067681 4.64996646 8.45475389 5.35003354 6.07633008 7.7760552 3.65374829 5.45055994 4.34625171 4.72914536 6.054 6.369"></polygon>
            </g>
        </g>
    </g>
</svg>