<?xml version="1.0" encoding="UTF-8"?>
<svg width="16px" height="16px" viewBox="0 0 16 16" version="1.1" xmlns="http://www.w3.org/2000/svg" xmlns:xlink="http://www.w3.org/1999/xlink">
    <title>设备信息</title>
    <g id="物联网3.0" stroke="none" stroke-width="1" fill="none" fill-rule="evenodd">
        <g id="业务平台-主机构-无数据" transform="translate(-38.000000, -134.000000)" fill="#ADB1B8">
            <g id="设备信息" transform="translate(38.000000, 134.000000)">
                <path d="M1.14285714,0 L14.8571429,0 C15.4883254,0 16,0.511674571 16,1.14285714 L16,5.71428572 C16,6.34546829 15.4883254,6.85714286 14.8571429,6.85714286 L1.14285714,6.85714286 C0.511674571,6.85714286 0,6.34546829 0,5.71428572 L0,1.14285714 C0,0.511674571 0.511674571,0 1.14285714,0 Z M2.85714286,2.28571428 C2.54158847,2.28576646 2.28580877,2.54158846 2.28580877,2.85714285 C2.28580877,3.17269724 2.54158847,3.42851924 2.85714286,3.42857142 L6.28571428,3.42857142 C6.60126867,3.42851924 6.85704837,3.17269724 6.85704837,2.85714285 C6.85704837,2.54158846 6.60126867,2.28576646 6.28571428,2.28571428 L2.85714286,2.28571428 Z M1.14285714,9.14285714 L14.8571429,9.14285714 C15.4883254,9.14285714 16,9.65453171 16,10.2857143 L16,14.8571429 C16,15.1602474 15.8795922,15.4509376 15.6652649,15.6652649 C15.4509376,15.8795922 15.1602474,16 14.8571429,16 L1.14285714,16 C0.839752581,16 0.549062396,15.8795922 0.334735107,15.6652649 C0.120407817,15.4509376 0,15.1602474 0,14.8571429 L0,10.2857143 C0,9.98260972 0.120407817,9.69191954 0.334735107,9.47759225 C0.549062396,9.26326496 0.839752581,9.14285714 1.14285714,9.14285714 L1.14285714,9.14285714 Z M2.85714286,11.4285714 C2.54155157,11.4285714 2.28571428,11.6844087 2.28571428,12 C2.28571428,12.3155913 2.54155157,12.5714286 2.85714286,12.5714286 L6.28571428,12.5714286 C6.60130557,12.5714286 6.85714286,12.3155913 6.85714286,12 C6.85714286,11.6844087 6.60130557,11.4285714 6.28571428,11.4285714 L2.85714286,11.4285714 Z" id="形状"></path>
            </g>
        </g>
    </g>
</svg>