<svg t="1648015227151" class="icon" viewBox="0 0 2048 1024" version="1.1" xmlns="http://www.w3.org/2000/svg" p-id="1737" width="32" height="32"><path d="M1536 0a512 512 0 1 1 0 1024h-1024a512 512 0 1 1 0-1024h1024z m0 78.769231h-1024a433.230769 433.230769 0 0 0-17.408 866.146461L512 945.230769h1024a433.230769 433.230769 0 0 0 17.408-866.146461L1536 78.769231z" fill="#C9CDD2" p-id="1738"></path><path d="M512 236.307692a275.692308 275.692308 0 1 1 0 551.384616 275.692308 275.692308 0 0 1 0-551.384616z m0 78.769231a196.923077 196.923077 0 1 0 0 393.846154 196.923077 196.923077 0 0 0 0-393.846154z" fill="#C9CDD2" p-id="1739"></path></svg>