<?xml version="1.0" standalone="no"?><!DOCTYPE svg PUBLIC "-//W3C//DTD SVG 1.1//EN" "http://www.w3.org/Graphics/SVG/1.1/DTD/svg11.dtd"><svg t="1647853348346" class="icon" viewBox="0 0 1024 1024" version="1.1" xmlns="http://www.w3.org/2000/svg" p-id="1756" xmlns:xlink="http://www.w3.org/1999/xlink" width="200" height="200"><defs><style type="text/css">@font-face { font-family: feedback-iconfont; src: url("//at.alicdn.com/t/font_1031158_u69w8yhxdu.woff2?t=1630033759944") format("woff2"), url("//at.alicdn.com/t/font_1031158_u69w8yhxdu.woff?t=1630033759944") format("woff"), url("//at.alicdn.com/t/font_1031158_u69w8yhxdu.ttf?t=1630033759944") format("truetype"); }
</style></defs><path d="M853.312 96H170.688c-40.576 0-74.688 34.112-74.688 74.688v682.624c0 40.576 34.112 74.688 74.688 74.688h682.624c40.576 0 74.688-34.112 74.688-74.688V170.688c0-40.576-34.112-74.688-74.688-74.688z m-682.624 64h682.624c6.4 0 10.688 4.288 10.688 10.688V384h-704V170.688c0-6.4 4.288-10.688 10.688-10.688zM160 853.312V448h181.312v416H170.688c-6.4 0-10.688-4.288-10.688-10.688z m693.312 10.688h-448V448H864v405.312c0 6.4-4.288 10.688-10.688 10.688z" fill="#7D848E" p-id="1757"></path></svg>