<?xml version="1.0" encoding="UTF-8"?>
<svg width="16px" height="16px" viewBox="0 0 16 16" version="1.1" xmlns="http://www.w3.org/2000/svg" xmlns:xlink="http://www.w3.org/1999/xlink">
    <title>信号</title>
    <g id="日报信息管理系统" stroke="none" stroke-width="1" fill="none" fill-rule="evenodd">
        <g id="我的看板" transform="translate(-202.000000, -34.000000)" fill-rule="nonzero">
            <g id="编组-19" transform="translate(182.000000, 20.000000)">
                <g id="信号" transform="translate(20.000000, 14.000000)">
                    <rect id="矩形" fill="#000000" opacity="0" x="0" y="0" width="16" height="16"></rect>
                    <path d="M8.798,5.8825 C9.08336477,5.647361 9.24906698,5.2972601 9.25,4.9275 C9.25,4.23714406 8.69035594,3.6775 8,3.6775 C7.30964406,3.6775 6.75,4.23714406 6.75,4.9275 C6.75,5.313 6.928,5.653 7.202,5.8825 L4.032,14.324 C3.96524914,14.4921002 3.99448541,14.6831445 4.10845398,14.8235884 C4.22242256,14.9640324 4.40335363,15.0319782 4.58159592,15.0012694 C4.75983822,14.9705606 4.90760043,14.8459853 4.968,14.6755 L5.738,12.6245 L10.2615,12.6245 L11.0315,14.6755 C11.1287323,14.9342262 11.4171244,15.0653339 11.676,14.9685 C11.9345,14.8715 12.065,14.583 11.9685,14.3245 L8.798,5.8825 Z M8.7775,8.6735 L7.222,8.6735 L8,6.6025 L8.7775,8.6735 Z M6.114,11.625 L6.847,9.6735 L9.1535,9.6735 L9.8865,11.625 L6.114,11.625 Z M10.351,6.522 C10.2451524,6.67019252 10.2282479,6.86421507 10.3068724,7.02847992 C10.3854968,7.19274477 10.5472144,7.30127092 10.7290229,7.31177852 C10.9108314,7.32228612 11.083975,7.23311322 11.181,7.079 C11.6218171,6.42136678 11.856485,5.64720634 11.855007,4.8555 C11.8561818,4.06383835 11.6215401,3.2897644 11.181,2.632 C11.082844,2.48031268 10.9104894,2.39337862 10.7301628,2.4046018 C10.5498362,2.41582498 10.3895913,2.52345939 10.3110013,2.68614704 C10.2324114,2.84883469 10.2477028,3.04126592 10.351,3.1895 C10.6810332,3.68233835 10.8566772,4.26236414 10.8555,4.8555 C10.8568982,5.44882398 10.6812393,6.02907273 10.351,6.522 L10.351,6.522 Z M4.5295,7.0785 C4.68317323,7.30797431 4.99377569,7.36942323 5.22325,7.21575 C5.45272431,7.06207677 5.51417323,6.75147431 5.3605,6.522 C5.03055452,6.02890621 4.85476478,5.44880006 4.85549509,4.8555 C4.85473457,4.26219548 5.03052691,3.68208073 5.3605,3.189 C5.51384515,2.95943245 5.45257855,2.64907468 5.2235,2.495 C4.99387446,2.34194577 4.68373888,2.4031685 4.5295,2.632 C4.08890458,3.2897382 3.85425764,4.06382941 3.85549509,4.8555 C3.85435702,5.64700029 4.08899966,6.42090326 4.5295,7.0785 L4.5295,7.0785 Z M3.2915,1.83 C3.44503516,1.60038762 3.38336238,1.28978516 3.15375,1.13625 C2.92413762,0.98271484 2.61353516,1.04438762 2.46,1.274 C1.73713612,2.35524031 1.35183284,3.62688036 1.35299626,4.9275 C1.35161027,6.2283818 1.73711656,7.50029151 2.4605,8.5815 C2.53415125,8.69195714 2.64878281,8.76851124 2.77902951,8.79422277 C2.90927622,8.81993429 3.04439954,8.79268338 3.1545,8.7185 C3.26474105,8.64467268 3.34111876,8.53005629 3.36681444,8.39988988 C3.39251011,8.26972347 3.3654166,8.13468121 3.2915,8.0245 C2.6780193,7.10813058 2.35146294,6.0297635 2.3535,4.927 C2.35174395,3.82443353 2.67828033,2.74630647 3.2915,1.83 L3.2915,1.83 Z M14.0035,2.411 C13.8389272,2.01282858 13.6352634,1.63196392 13.3955,1.274 C13.297641,1.12208289 13.125425,1.0347902 12.9450456,1.04567405 C12.7646662,1.0565579 12.6041957,1.16392445 12.5253131,1.32650591 C12.4464305,1.48908737 12.4614123,1.68158128 12.5645,1.83 C13.178379,2.7462083 13.5051317,3.82464889 13.503,4.9275 C13.5047595,6.03014064 13.1780347,7.10831514 12.5645,8.0245 C12.4221497,8.25357583 12.4869098,8.5542503 12.7109417,8.70441369 C12.9349736,8.85457709 13.2377021,8.80022165 13.3955,8.5815 C14.119685,7.50067096 14.5052671,6.22851121 14.5030099,4.9275 C14.5030099,4.0575 14.335,3.211 14.0035,2.411 L14.0035,2.411 Z" id="形状" fill="#2785FF"></path>
                </g>
            </g>
        </g>
    </g>
</svg>