<?xml version="1.0" standalone="no"?><!DOCTYPE svg PUBLIC "-//W3C//DTD SVG 1.1//EN" "http://www.w3.org/Graphics/SVG/1.1/DTD/svg11.dtd"><svg t="1647937824134" class="icon" viewBox="0 0 1024 1024" version="1.1" xmlns="http://www.w3.org/2000/svg" p-id="2784" xmlns:xlink="http://www.w3.org/1999/xlink" width="200" height="200"><defs><style type="text/css">@font-face { font-family: feedback-iconfont; src: url("//at.alicdn.com/t/font_1031158_u69w8yhxdu.woff2?t=1630033759944") format("woff2"), url("//at.alicdn.com/t/font_1031158_u69w8yhxdu.woff?t=1630033759944") format("woff"), url("//at.alicdn.com/t/font_1031158_u69w8yhxdu.ttf?t=1630033759944") format("truetype"); }
</style></defs><path d="M388.992 768q11.008-28.992 35.488-46.496T479.968 704t55.488 17.504T570.944 768h324.992v64H570.944q-11.008 28.992-35.488 46.496T479.968 896t-55.488-17.504T388.992 832H128v-64h260.992z m192-288q11.008-28.992 35.488-46.496T671.968 416t55.488 17.504T762.944 480h132.992v64h-132.992q-11.008 28.992-35.488 46.496T671.968 608t-55.488-17.504T580.992 544H128v-64h452.992z m-320-288q11.008-28.992 35.488-46.496T351.968 128t55.488 17.504T442.944 192h452.992v64H442.944q-11.008 28.992-35.488 46.496T351.968 320t-55.488-17.504T260.992 256H128V192h132.992z" p-id="2785" fill="#1296db"></path></svg>