<?xml version="1.0" standalone="no"?><!DOCTYPE svg PUBLIC "-//W3C//DTD SVG 1.1//EN" "http://www.w3.org/Graphics/SVG/1.1/DTD/svg11.dtd"><svg t="1647846793431" class="icon" viewBox="0 0 1024 1024" version="1.1" xmlns="http://www.w3.org/2000/svg" p-id="1872" xmlns:xlink="http://www.w3.org/1999/xlink" width="200" height="200"><defs><style type="text/css">@font-face { font-family: feedback-iconfont; src: url("//at.alicdn.com/t/font_1031158_u69w8yhxdu.woff2?t=1630033759944") format("woff2"), url("//at.alicdn.com/t/font_1031158_u69w8yhxdu.woff?t=1630033759944") format("woff"), url("//at.alicdn.com/t/font_1031158_u69w8yhxdu.ttf?t=1630033759944") format("truetype"); }
</style></defs><path d="M877.714286 0a146.285714 146.285714 0 0 1 146.285714 146.285714v731.428572a146.285714 146.285714 0 0 1-146.285714 146.285714H146.285714a146.285714 146.285714 0 0 1-146.285714-146.285714V146.285714a146.285714 146.285714 0 0 1 146.285714-146.285714h731.428572z m0 73.142857H146.285714a73.142857 73.142857 0 0 0-72.630857 64.585143L73.142857 146.285714v731.428572a73.142857 73.142857 0 0 0 64.585143 72.630857L146.285714 950.857143h731.428572a73.142857 73.142857 0 0 0 72.630857-64.585143L950.857143 877.714286V146.285714a73.142857 73.142857 0 0 0-64.585143-72.630857L877.714286 73.142857z" fill="#FFFFFF" p-id="1873"></path><path d="M548.571429 292.571429v182.857142H731.428571v73.142858H548.498286L548.571429 731.428571h-73.142858l-0.073142-182.857142H292.571429v-73.142858h182.857142V292.571429h73.142858z" fill="#FFFFFF" p-id="1874"></path></svg>