<?xml version="1.0" encoding="UTF-8"?>
<svg width="16px" height="16px" viewBox="0 0 16 16" version="1.1" xmlns="http://www.w3.org/2000/svg" xmlns:xlink="http://www.w3.org/1999/xlink">
    <title>search</title>
    <g id="日报信息管理系统" stroke="none" stroke-width="1" fill="none" fill-rule="evenodd">
        <g id="报表中心--boss版" transform="translate(-724.000000, -130.000000)" fill-rule="nonzero">
            <g id="编组-8" transform="translate(709.000000, 123.000000)">
                <g id="search" transform="translate(15.000000, 7.000000)">
                    <rect id="矩形" fill="#000000" opacity="0" x="0" y="0" width="16" height="16"></rect>
                    <path d="M3,7 C3,4.7945 4.7945,3 7,3 C9.2055,3 11,4.7945 11,7 C11,9.2055 9.2055,11 7,11 C4.7945,11 3,9.2055 3,7 Z M14.1035,13.3965 L10.871,10.164 C11.6023652,9.27188993 12.0014071,8.15358287 12,7 C12,4.2385 9.7615,2 7,2 C4.2385,2 2,4.2385 2,7 C2,9.7615 4.2385,12 7,12 C8.15358287,12.0014071 9.27188993,11.6023652 10.164,10.871 L13.3965,14.1035 L14.1035,13.3965 L14.1035,13.3965 Z" id="形状" fill="#FFFFFF"></path>
                </g>
            </g>
        </g>
    </g>
</svg>