<?xml version="1.0" standalone="no"?><!DOCTYPE svg PUBLIC "-//W3C//DTD SVG 1.1//EN" "http://www.w3.org/Graphics/SVG/1.1/DTD/svg11.dtd"><svg t="1647853401720" class="icon" viewBox="0 0 1024 1024" version="1.1" xmlns="http://www.w3.org/2000/svg" p-id="2327" xmlns:xlink="http://www.w3.org/1999/xlink" width="200" height="200"><defs><style type="text/css">@font-face { font-family: feedback-iconfont; src: url("//at.alicdn.com/t/font_1031158_u69w8yhxdu.woff2?t=1630033759944") format("woff2"), url("//at.alicdn.com/t/font_1031158_u69w8yhxdu.woff?t=1630033759944") format("woff"), url("//at.alicdn.com/t/font_1031158_u69w8yhxdu.ttf?t=1630033759944") format("truetype"); }
</style></defs><path d="M842.688 285.888l-187.776-187.776A70.784 70.784 0 0 0 601.6 76.8H234.688C194.112 74.688 160 108.8 160 149.312v725.376c0 40.512 34.112 74.624 74.688 74.624h554.624c40.576 0 74.688-34.112 74.688-74.624v-537.6c0-19.2-8.512-38.4-21.312-51.2z m-44.8 44.8c-2.176 2.112-4.288 0-8.576 0H618.688c-6.4 0-10.688-4.288-10.688-10.688V149.312c0-2.112 0-6.4-2.112-8.512 0 0 2.112 0 2.112 2.112l189.888 187.776z m-8.576 554.624H234.688c-6.4 0-10.688-4.224-10.688-10.624V149.312c0-6.4 4.288-10.624 10.688-10.624h311.424c-2.112 4.224-2.112 6.4-2.112 10.624V320c0 40.512 34.112 74.688 74.688 74.688h170.624c4.288 0 6.4 0 10.688-2.176v482.176c0 6.4-4.288 10.624-10.688 10.624z m-149.312-192H341.312c-17.024 0-32 14.976-32 32 0 17.088 14.976 32 32 32H640c17.088 0 32-14.912 32-32 0-17.024-14.912-32-32-32z m0-170.624H341.312c-17.024 0-32 14.912-32 32 0 17.024 14.976 32 32 32H640c17.088 0 32-14.976 32-32 0-17.088-14.912-32-32-32zM341.312 416h85.376c17.024 0 32-14.912 32-32s-14.976-32-32-32H341.312c-17.024 0-32 14.912-32 32s14.976 32 32 32z" fill="#ffffff" p-id="2328"></path></svg>