<?xml version="1.0" standalone="no"?><!DOCTYPE svg PUBLIC "-//W3C//DTD SVG 1.1//EN" "http://www.w3.org/Graphics/SVG/1.1/DTD/svg11.dtd"><svg t="1647853387982" class="icon" viewBox="0 0 1024 1024" version="1.1" xmlns="http://www.w3.org/2000/svg" p-id="1969" xmlns:xlink="http://www.w3.org/1999/xlink" width="200" height="200"><defs><style type="text/css">@font-face { font-family: feedback-iconfont; src: url("//at.alicdn.com/t/font_1031158_u69w8yhxdu.woff2?t=1630033759944") format("woff2"), url("//at.alicdn.com/t/font_1031158_u69w8yhxdu.woff?t=1630033759944") format("woff"), url("//at.alicdn.com/t/font_1031158_u69w8yhxdu.ttf?t=1630033759944") format("truetype"); }
</style></defs><path d="M887.488 642.112a32.896 32.896 0 0 0-42.688 17.088 368.384 368.384 0 0 1-386.112 221.888c-164.288-21.376-294.4-149.376-315.776-313.6C119.488 405.312 209.088 245.312 358.4 179.2c17.088-6.4 23.488-25.6 17.088-42.688-6.4-17.024-25.6-23.424-42.688-17.024C155.712 198.4 51.2 386.112 78.912 578.112c27.776 192 179.2 343.488 371.2 369.088 19.2 2.112 36.288 4.288 55.488 4.288 170.688 0 330.688-102.4 398.912-264.576 6.4-17.024-2.112-36.224-17.024-44.8z m-72.576-433.024a455.104 455.104 0 0 0-324.224-134.4c-17.088 0-32 14.912-32 32v426.624c0 17.088 14.912 32 32 32h426.624c17.088 0 32-14.912 32-32 0-121.6-46.912-236.8-134.4-324.224zM522.688 501.312V140.8c93.824 6.4 179.2 46.912 247.424 115.2a400.512 400.512 0 0 1 115.2 247.488H522.688v-2.176z" fill="#ffffff" p-id="1970"></path></svg>