<?xml version="1.0" standalone="no"?><!DOCTYPE svg PUBLIC "-//W3C//DTD SVG 1.1//EN" "http://www.w3.org/Graphics/SVG/1.1/DTD/svg11.dtd"><svg t="1647853407443" class="icon" viewBox="0 0 1024 1024" version="1.1" xmlns="http://www.w3.org/2000/svg" p-id="2506" xmlns:xlink="http://www.w3.org/1999/xlink" width="200" height="200"><defs><style type="text/css">@font-face { font-family: feedback-iconfont; src: url("//at.alicdn.com/t/font_1031158_u69w8yhxdu.woff2?t=1630033759944") format("woff2"), url("//at.alicdn.com/t/font_1031158_u69w8yhxdu.woff?t=1630033759944") format("woff"), url("//at.alicdn.com/t/font_1031158_u69w8yhxdu.ttf?t=1630033759944") format("truetype"); }
</style></defs><path d="M411.712 885.312H192c-6.4 0-10.688-4.224-10.688-10.624V149.312c0-6.4 4.288-10.624 10.688-10.624h576c6.4 0 10.688 4.224 10.688 10.624v219.776c0 17.024 14.912 32 32 32 17.024 0 32-14.976 32-32V149.312c0-40.512-34.176-74.624-74.688-74.624H192c-40.512 0-74.688 34.112-74.688 74.624v725.376c0 40.512 34.176 74.624 74.688 74.624h219.712c17.088 0 32-14.912 32-32 0-17.024-14.912-32-32-32zM704 458.688C569.6 458.688 458.688 569.6 458.688 704S569.6 949.312 704 949.312 949.312 838.4 949.312 704 838.4 458.688 704 458.688z m0 426.624A181.184 181.184 0 0 1 522.688 704 181.184 181.184 0 0 1 704 522.688 181.184 181.184 0 0 1 885.312 704 181.184 181.184 0 0 1 704 885.312z m98.112-168.512l-66.112-29.888v-89.6c0-17.024-14.912-32-32-32s-32 14.976-32 32v110.976c0 12.8 8.512 23.424 19.2 29.824l85.312 38.4a27.072 27.072 0 0 0 12.8 2.176c12.8 0 23.488-6.4 29.888-19.2 6.4-17.088 0-34.176-17.088-42.688z m-108.8-418.112c0-17.088-14.912-32-32-32H298.688c-17.088 0-32 14.912-32 32 0 17.024 14.912 32 32 32h362.624c17.088 0 32-14.976 32-32zM298.688 437.312c-17.088 0-32 14.976-32 32 0 17.088 14.912 32 32 32h106.624c17.088 0 32-14.912 32-32 0-17.024-14.912-32-32-32H298.688z" fill="#ffffff" p-id="2507"></path></svg>