<?xml version="1.0" standalone="no"?><!DOCTYPE svg PUBLIC "-//W3C//DTD SVG 1.1//EN" "http://www.w3.org/Graphics/SVG/1.1/DTD/svg11.dtd"><svg t="1647853396666" class="icon" viewBox="0 0 1024 1024" version="1.1" xmlns="http://www.w3.org/2000/svg" p-id="2148" xmlns:xlink="http://www.w3.org/1999/xlink" width="200" height="200"><defs><style type="text/css">@font-face { font-family: feedback-iconfont; src: url("//at.alicdn.com/t/font_1031158_u69w8yhxdu.woff2?t=1630033759944") format("woff2"), url("//at.alicdn.com/t/font_1031158_u69w8yhxdu.woff?t=1630033759944") format("woff"), url("//at.alicdn.com/t/font_1031158_u69w8yhxdu.ttf?t=1630033759944") format("truetype"); }
</style></defs><path d="M832 74.688H192c-17.088 0-32 14.912-32 32v765.824c0 12.8 4.288 23.488 12.8 34.176a55.232 55.232 0 0 0 36.288 19.2h6.4c12.8 0 23.424-4.288 34.112-12.8l264.512-213.376 264.576 213.376c8.512 8.512 21.312 12.8 34.112 12.8a52.8 52.8 0 0 0 53.312-53.376V106.688c-2.112-17.088-17.024-32-34.112-32zM800 851.2L531.2 633.6c-10.688-8.512-27.712-8.512-40.512 0L224 851.2V138.688h576V851.2zM341.312 341.312h320c17.088 0 32-14.912 32-32 0-17.024-14.912-32-32-32h-320c-17.024 0-32 14.976-32 32 0 17.088 14.976 32 32 32z m0 170.688h213.376c17.024 0 32-14.912 32-32s-14.976-32-32-32H341.312c-17.024 0-32 14.912-32 32s14.976 32 32 32z" fill="#ffffff" p-id="2149"></path></svg>