<?xml version="1.0" encoding="UTF-8"?>
<svg width="19px" height="19px" viewBox="0 0 19 19" version="1.1" xmlns="http://www.w3.org/2000/svg" xmlns:xlink="http://www.w3.org/1999/xlink">
    <title>角色管理</title>
    <g id="日报信息管理系统" stroke="none" stroke-width="1" fill="none" fill-rule="evenodd">
        <g id="用户管理" transform="translate(-202.000000, -132.000000)" fill="#596578" fill-rule="nonzero">
            <g id="角色管理" transform="translate(202.000000, 132.000000)">
                <path d="M8.5,0 C10.9852814,0 13,2.01471863 13,4.5 C13,6.35346253 11.8794509,7.94520679 10.2788479,8.6347376 C11.2361354,8.80761285 12.1503352,9.15246471 12.9866175,9.65111923 L13.273361,9.83012732 L12.726639,10.6674415 C11.5646717,9.90873825 10.2167045,9.5 8.80877786,9.5 C4.85567052,9.5 1.63130331,12.7223276 1.50390986,16.7522797 L1.5,17 L0.5,17 C0.5,12.9677204 3.24568244,9.58802643 6.93233591,8.71759622 C5.21972813,8.08261329 4,6.43374803 4,4.5 C4,2.01471863 6.01471863,0 8.5,0 Z M13,0.5 C15.4852814,0.5 17.5,2.51471863 17.5,5 C17.5,6.65008541 16.6042064,8.12369414 15.2340474,8.90768534 L17.1924901,9.72857818 L16.8075099,10.651503 L13.6058721,9.31607324 L13.957,8.386 L13.9528479,8.36886464 C15.447832,7.94698706 16.5,6.57692719 16.5,5 C16.5,3.1314366 15.0357224,1.60487355 13.1920352,1.50517886 L13,1.5 L13,0.5 Z M8.5,1 C6.56700338,1 5,2.56700338 5,4.5 C5,6.43299662 6.56700338,8 8.5,8 C10.4329966,8 12,6.43299662 12,4.5 C12,2.56700338 10.4329966,1 8.5,1 Z" id="形状结合"></path>
                <path d="M15.9824219,16.3466797 C15.6992188,16.5791016 15.3779297,16.7597656 15.0322266,16.8798828 L15.0322266,17.5595703 C15.0322266,17.8398438 14.8056641,18.0664062 14.5253906,18.0664062 L13.4775391,18.0664062 C13.1972656,18.0664062 12.9707031,17.8398438 12.9707031,17.5595703 L12.9707031,16.8798828 C12.625,16.7597656 12.3027344,16.5791016 12.0205078,16.3466797 L11.4453125,16.6787109 C11.203125,16.8183594 10.8935547,16.7353516 10.7529297,16.4931641 L10.2294922,15.5849609 C10.0898438,15.3427734 10.171875,15.0332031 10.4140625,14.8925781 L10.9619141,14.5761719 C10.890625,14.203125 10.890625,13.8203125 10.9619141,13.4472656 L10.4140625,13.1308594 C10.171875,12.9912109 10.0888672,12.6806641 10.2285156,12.4384766 L10.7519531,11.5302734 C10.8916016,11.2880859 11.2021484,11.2050781 11.4443359,11.3447266 L12.0195313,11.6767578 C12.3027344,11.4443359 12.6240234,11.2626953 12.9707031,11.1425781 L12.9707031,10.4638672 C12.9707031,10.1835938 13.1972656,9.95703125 13.4775391,9.95703125 L14.5253906,9.95703125 C14.8056641,9.95703125 15.0322266,10.1835938 15.0322266,10.4638672 L15.0322266,11.1435547 C15.3828125,11.265625 15.703125,11.4472656 15.9824219,11.6767578 L16.5576172,11.3447266 C16.7998047,11.2050781 17.109375,11.2880859 17.25,11.5302734 L17.7734375,12.4384766 C17.9130859,12.6806641 17.8300781,12.9902344 17.5878906,13.1308594 L17.0400391,13.4472656 C17.1113281,13.8203125 17.1113281,14.203125 17.0400391,14.5761719 L17.5878906,14.8925781 C17.8300781,15.0322266 17.9130859,15.3427734 17.7734375,15.5849609 L17.25,16.4931641 C17.1103516,16.7353516 16.7998047,16.8183594 16.5576172,16.6787109 L15.9824219,16.3466797 Z M14.0009766,15.5332031 C14.8544922,15.5332031 15.546875,14.8525391 15.546875,14.0126953 C15.546875,13.1728516 14.8544922,12.4921875 14.0009766,12.4921875 C13.1474609,12.4921875 12.4550781,13.1728516 12.4550781,14.0126953 C12.4550781,14.8525391 13.1474609,15.5332031 14.0009766,15.5332031 Z" id="形状"></path>
            </g>
        </g>
    </g>
</svg>